<svg width="202" height="28" viewBox="0 0 202 28" fill="none" xmlns="http://www.w3.org/2000/svg">
<path d="M0.46 27.108V26.208L0.784 26.172C1.624 26.052 2.308 25.884 2.836 25.668C3.388 25.452 3.856 25.104 4.24 24.624C4.648 24.12 5.032 23.436 5.392 22.572L14.104 1.44H15.328L23.824 22.572C24.304 23.748 24.82 24.612 25.372 25.164C25.924 25.716 26.68 26.04 27.64 26.136L28.36 26.208V27.108L23.896 27L18.136 27.108V26.208L18.856 26.136C19.696 26.04 20.296 25.86 20.656 25.596C21.016 25.332 21.196 24.96 21.196 24.48C21.196 24 21.028 23.352 20.692 22.536L18.82 17.856H8.668L6.724 22.536C6.556 22.968 6.412 23.364 6.292 23.724C6.172 24.06 6.112 24.36 6.112 24.624C6.112 25.08 6.304 25.428 6.688 25.668C7.096 25.908 7.756 26.064 8.668 26.136L9.388 26.208V27.108L4.816 27L0.46 27.108ZM9.136 16.704H18.388L13.852 5.292L9.136 16.704ZM28.3642 27.108V26.28L28.9402 26.208C29.6362 26.112 30.1642 26.004 30.5242 25.884C30.9082 25.74 31.1722 25.44 31.3162 24.984C31.4602 24.504 31.5322 23.724 31.5322 22.644V5.076C31.5322 3.828 31.2682 3.036 30.7402 2.7C30.2362 2.34 29.5282 2.16 28.6162 2.16H28.3642V1.332C29.3482 1.332 30.2962 1.308 31.2082 1.26C32.1202 1.188 33.0682 1.068 34.0522 0.899999V20.16L39.3802 13.788C39.6922 13.404 39.8482 13.068 39.8482 12.78C39.8482 12.42 39.5602 12.204 38.9842 12.132L38.4082 12.06V11.232L41.8642 11.304L44.8882 11.232V12.06L44.3122 12.132C43.2322 12.276 42.3202 12.6 41.5762 13.104C40.8562 13.608 40.1962 14.22 39.5962 14.94L37.5082 17.424L43.6282 24.264C43.9882 24.672 44.3842 25.092 44.8162 25.524C45.2482 25.932 45.6802 26.16 46.1122 26.208L46.6882 26.28V27.108L42.6922 27L35.8882 19.332L34.0522 21.528V22.644C34.0522 23.724 34.1242 24.504 34.2682 24.984C34.4122 25.44 34.6642 25.74 35.0242 25.884C35.4082 26.004 35.9482 26.112 36.6442 26.208L37.2202 26.28V27.108L32.7922 27L28.3642 27.108ZM52.1476 27.396C50.9956 27.396 50.0356 27.108 49.2676 26.532C48.5236 25.932 48.1516 25.104 48.1516 24.048C48.1516 22.992 48.6196 22.056 49.5556 21.24C50.4916 20.4 51.5836 19.644 52.8316 18.972C53.7676 18.444 54.7036 17.988 55.6396 17.604C56.5756 17.22 57.3796 16.896 58.0516 16.632V15.48C58.0516 14.16 57.7996 13.176 57.2956 12.528C56.8156 11.88 55.8916 11.556 54.5236 11.556C53.8756 11.556 53.2396 11.64 52.6156 11.808C51.9916 11.976 51.6796 12.288 51.6796 12.744C51.6796 12.84 51.6916 12.948 51.7156 13.068C51.7636 13.188 51.7996 13.308 51.8236 13.428C51.9436 13.74 52.0036 14.064 52.0036 14.4C52.0036 14.856 51.8356 15.216 51.4996 15.48C51.1876 15.72 50.8036 15.84 50.3476 15.84C49.9156 15.84 49.5556 15.684 49.2676 15.372C48.9796 15.036 48.8356 14.64 48.8356 14.184C48.8356 13.32 49.1596 12.636 49.8076 12.132C50.4796 11.604 51.2956 11.232 52.2556 11.016C53.2156 10.776 54.1396 10.656 55.0276 10.656C56.9476 10.656 58.3516 11.1 59.2396 11.988C60.1276 12.876 60.5716 14.328 60.5716 16.344V22.824C60.5716 23.88 60.6436 24.696 60.7876 25.272C60.9556 25.848 61.3156 26.136 61.8676 26.136C62.2276 26.136 62.5396 26.004 62.8036 25.74C63.0676 25.476 63.2476 25.188 63.3436 24.876L63.9916 25.128C63.7996 25.824 63.4516 26.376 62.9476 26.784C62.4676 27.192 61.7956 27.396 60.9316 27.396C59.8756 27.396 59.1436 27.096 58.7356 26.496C58.3516 25.872 58.1356 25.056 58.0876 24.048C57.4156 25.128 56.5636 25.956 55.5316 26.532C54.4996 27.108 53.3716 27.396 52.1476 27.396ZM50.9596 23.868C50.9596 24.54 51.1516 25.08 51.5356 25.488C51.9436 25.872 52.5316 26.064 53.2996 26.064C53.9956 26.064 54.6556 25.896 55.2796 25.56C55.9276 25.224 56.4916 24.804 56.9716 24.3C57.4516 23.772 57.8116 23.208 58.0516 22.608V17.352C57.2596 17.688 56.4436 18.084 55.6036 18.54C54.7876 18.972 54.0196 19.464 53.2996 20.016C52.6036 20.568 52.0396 21.168 51.6076 21.816C51.1756 22.44 50.9596 23.124 50.9596 23.868ZM65.008 27.108V26.28L65.584 26.208C66.28 26.112 66.808 26.004 67.168 25.884C67.552 25.74 67.816 25.44 67.96 24.984C68.104 24.504 68.176 23.724 68.176 22.644V15.048C68.176 13.8 67.912 13.008 67.384 12.672C66.88 12.312 66.172 12.132 65.26 12.132H65.008V11.304C65.992 11.304 66.94 11.28 67.852 11.232C68.764 11.16 69.712 11.04 70.696 10.872V13.788C71.248 12.972 72.028 12.252 73.036 11.628C74.044 10.98 75.22 10.656 76.564 10.656C78.196 10.656 79.48 11.076 80.416 11.916C81.376 12.732 81.856 13.908 81.856 15.444V22.644C81.856 23.724 81.928 24.504 82.072 24.984C82.216 25.44 82.468 25.74 82.828 25.884C83.212 26.004 83.752 26.112 84.448 26.208L85.024 26.28V27.108L80.596 27L76.168 27.108V26.28L76.744 26.208C77.44 26.112 77.968 26.004 78.328 25.884C78.712 25.74 78.976 25.44 79.12 24.984C79.264 24.504 79.336 23.724 79.336 22.644V15.444C79.336 14.244 79.024 13.332 78.4 12.708C77.776 12.06 76.9 11.736 75.772 11.736C74.908 11.736 74.128 11.94 73.432 12.348C72.736 12.732 72.16 13.212 71.704 13.788C71.248 14.364 70.912 14.916 70.696 15.444V22.644C70.696 23.724 70.768 24.504 70.912 24.984C71.056 25.44 71.308 25.74 71.668 25.884C72.052 26.004 72.592 26.112 73.288 26.208L73.864 26.28V27.108L69.436 27L65.008 27.108Z" fill="#FF6F00"/>
<path d="M96.3063 27.144V26.244L97.0263 26.172C97.8663 26.076 98.5023 25.956 98.9343 25.812C99.3903 25.668 99.7023 25.332 99.8703 24.804C100.038 24.276 100.122 23.412 100.122 22.212V3.636C99.9063 3.372 99.5823 3.084 99.1503 2.772C98.7183 2.436 98.0823 2.268 97.2423 2.268H96.1623V1.332L103.146 1.44C103.578 2.04 104.154 2.832 104.874 3.816C105.618 4.8 106.434 5.892 107.322 7.092C108.234 8.292 109.17 9.528 110.13 10.8C111.09 12.048 112.014 13.26 112.902 14.436C113.814 15.612 114.63 16.668 115.35 17.604C116.07 18.54 116.634 19.284 117.042 19.836V6.228C117.042 5.028 116.958 4.176 116.79 3.672C116.622 3.144 116.31 2.808 115.854 2.664C115.422 2.496 114.786 2.376 113.946 2.304L113.226 2.232V1.332L117.906 1.44L122.298 1.332V2.232L121.578 2.304C120.762 2.4 120.126 2.532 119.67 2.7C119.214 2.844 118.902 3.168 118.734 3.672C118.566 4.176 118.482 5.028 118.482 6.228V27H117.402C117.018 26.208 116.442 25.236 115.674 24.084C114.93 22.908 114.066 21.624 113.082 20.232C112.098 18.84 111.066 17.424 109.986 15.984C108.93 14.52 107.874 13.104 106.818 11.736C105.762 10.368 104.778 9.12 103.866 7.992C102.954 6.864 102.186 5.928 101.562 5.184V22.212C101.562 23.412 101.646 24.276 101.814 24.804C101.982 25.332 102.294 25.668 102.75 25.812C103.206 25.956 103.842 26.076 104.658 26.172L105.378 26.244V27.144L100.77 27L96.3063 27.144ZM128.823 27.396C127.671 27.396 126.711 27.108 125.943 26.532C125.199 25.932 124.827 25.104 124.827 24.048C124.827 22.992 125.295 22.056 126.231 21.24C127.167 20.4 128.259 19.644 129.507 18.972C130.443 18.444 131.379 17.988 132.315 17.604C133.251 17.22 134.055 16.896 134.727 16.632V15.48C134.727 14.16 134.475 13.176 133.971 12.528C133.491 11.88 132.567 11.556 131.199 11.556C130.551 11.556 129.915 11.64 129.291 11.808C128.667 11.976 128.355 12.288 128.355 12.744C128.355 12.84 128.367 12.948 128.391 13.068C128.439 13.188 128.475 13.308 128.499 13.428C128.619 13.74 128.679 14.064 128.679 14.4C128.679 14.856 128.511 15.216 128.175 15.48C127.863 15.72 127.479 15.84 127.023 15.84C126.591 15.84 126.231 15.684 125.943 15.372C125.655 15.036 125.511 14.64 125.511 14.184C125.511 13.32 125.835 12.636 126.483 12.132C127.155 11.604 127.971 11.232 128.931 11.016C129.891 10.776 130.815 10.656 131.703 10.656C133.623 10.656 135.027 11.1 135.915 11.988C136.803 12.876 137.247 14.328 137.247 16.344V22.824C137.247 23.88 137.319 24.696 137.463 25.272C137.631 25.848 137.991 26.136 138.543 26.136C138.903 26.136 139.215 26.004 139.479 25.74C139.743 25.476 139.923 25.188 140.019 24.876L140.667 25.128C140.475 25.824 140.127 26.376 139.623 26.784C139.143 27.192 138.471 27.396 137.607 27.396C136.551 27.396 135.819 27.096 135.411 26.496C135.027 25.872 134.811 25.056 134.763 24.048C134.091 25.128 133.239 25.956 132.207 26.532C131.175 27.108 130.047 27.396 128.823 27.396ZM127.635 23.868C127.635 24.54 127.827 25.08 128.211 25.488C128.619 25.872 129.207 26.064 129.975 26.064C130.671 26.064 131.331 25.896 131.955 25.56C132.603 25.224 133.167 24.804 133.647 24.3C134.127 23.772 134.487 23.208 134.727 22.608V17.352C133.935 17.688 133.119 18.084 132.279 18.54C131.463 18.972 130.695 19.464 129.975 20.016C129.279 20.568 128.715 21.168 128.283 21.816C127.851 22.44 127.635 23.124 127.635 23.868ZM141.684 27.108V26.28L142.26 26.208C142.956 26.112 143.484 26.004 143.844 25.884C144.228 25.74 144.492 25.44 144.636 24.984C144.78 24.504 144.852 23.724 144.852 22.644V15.048C144.852 14.184 144.72 13.548 144.456 13.14C144.216 12.708 143.856 12.432 143.376 12.312C142.896 12.192 142.332 12.132 141.684 12.132V11.304C142.668 11.304 143.616 11.28 144.528 11.232C145.44 11.16 146.388 11.04 147.372 10.872V13.68C147.9 12.864 148.632 12.156 149.568 11.556C150.528 10.956 151.632 10.656 152.88 10.656C154.152 10.656 155.208 10.932 156.048 11.484C156.912 12.012 157.488 12.852 157.776 14.004C158.28 13.14 159.024 12.372 160.008 11.7C160.992 11.004 162.156 10.656 163.5 10.656C165.06 10.656 166.296 11.064 167.208 11.88C168.144 12.696 168.612 13.992 168.612 15.768V22.644C168.612 23.7 168.672 24.468 168.792 24.948C168.936 25.404 169.188 25.704 169.548 25.848C169.932 25.992 170.472 26.112 171.168 26.208L171.744 26.28V27.108L167.352 27L163.284 27.108V26.28L163.86 26.208C164.46 26.136 164.916 26.028 165.228 25.884C165.564 25.74 165.792 25.44 165.912 24.984C166.032 24.504 166.092 23.724 166.092 22.644V15.156C166.092 14.1 165.804 13.272 165.228 12.672C164.652 12.048 163.836 11.736 162.78 11.736C161.916 11.736 161.16 11.928 160.512 12.312C159.864 12.696 159.324 13.176 158.892 13.752C158.484 14.328 158.184 14.892 157.992 15.444C157.992 15.54 157.992 15.648 157.992 15.768V22.644C157.992 23.724 158.052 24.504 158.172 24.984C158.292 25.44 158.508 25.74 158.82 25.884C159.156 26.004 159.624 26.112 160.224 26.208L160.8 26.28V27.108L156.732 27L152.664 27.108V26.28L153.24 26.208C153.84 26.112 154.296 26.004 154.608 25.884C154.944 25.74 155.172 25.44 155.292 24.984C155.412 24.504 155.472 23.724 155.472 22.644V15.156C155.472 14.1 155.184 13.272 154.608 12.672C154.032 12.048 153.216 11.736 152.16 11.736C151.32 11.736 150.576 11.928 149.928 12.312C149.28 12.696 148.74 13.176 148.308 13.752C147.876 14.328 147.564 14.892 147.372 15.444V22.644C147.372 23.724 147.432 24.504 147.552 24.984C147.672 25.44 147.888 25.74 148.2 25.884C148.536 26.004 149.004 26.112 149.604 26.208L150.18 26.28V27.108L146.112 27L141.684 27.108ZM181.645 27.396C180.061 27.396 178.681 27.06 177.505 26.388C176.329 25.692 175.405 24.744 174.733 23.544C174.085 22.32 173.761 20.928 173.761 19.368C173.761 17.688 174.121 16.2 174.841 14.904C175.561 13.584 176.521 12.552 177.721 11.808C178.945 11.04 180.289 10.656 181.753 10.656C183.601 10.656 185.041 11.244 186.073 12.42C187.129 13.596 187.657 15.144 187.657 17.064C187.657 17.352 187.645 17.592 187.621 17.784C187.597 17.976 187.573 18.108 187.549 18.18H176.677C176.653 18.516 176.641 18.852 176.641 19.188C176.641 20.46 176.845 21.648 177.253 22.752C177.661 23.832 178.273 24.696 179.089 25.344C179.929 25.992 180.949 26.316 182.149 26.316C183.277 26.316 184.273 26.004 185.137 25.38C186.025 24.732 186.709 23.784 187.189 22.536L188.053 22.86C187.045 25.884 184.909 27.396 181.645 27.396ZM181.753 11.556C180.265 11.556 179.101 12.084 178.261 13.14C177.445 14.196 176.941 15.6 176.749 17.352H181.321C182.401 17.352 183.217 17.232 183.769 16.992C184.345 16.728 184.729 16.416 184.921 16.056C185.137 15.672 185.245 15.3 185.245 14.94C185.245 13.884 184.885 13.056 184.165 12.456C183.445 11.856 182.641 11.556 181.753 11.556ZM196.929 27.396C196.017 27.396 195.237 27.288 194.589 27.072C193.965 26.88 193.473 26.7 193.113 26.532C192.729 26.34 192.489 26.244 192.393 26.244C192.297 26.244 192.213 26.292 192.141 26.388C192.093 26.46 192.033 26.664 191.961 27H191.133L191.277 24.624L191.385 21.564H192.177L192.213 22.176C192.261 22.848 192.477 23.52 192.861 24.192C193.269 24.864 193.821 25.428 194.517 25.884C195.213 26.34 196.017 26.568 196.929 26.568C197.913 26.568 198.705 26.316 199.305 25.812C199.905 25.308 200.205 24.612 200.205 23.724C200.205 22.956 199.893 22.308 199.269 21.78C198.669 21.252 197.829 20.784 196.749 20.376L195.453 19.872C194.205 19.392 193.257 18.792 192.609 18.072C191.985 17.352 191.673 16.428 191.673 15.3C191.673 14.34 191.889 13.524 192.321 12.852C192.777 12.156 193.365 11.616 194.085 11.232C194.829 10.848 195.621 10.656 196.461 10.656C197.061 10.656 197.565 10.728 197.973 10.872C198.405 11.016 198.765 11.16 199.053 11.304C199.293 11.424 199.497 11.484 199.665 11.484C199.905 11.484 200.097 11.232 200.241 10.728L201.033 10.764L200.889 13.104V15.624H200.061C199.893 14.496 199.509 13.524 198.909 12.708C198.309 11.868 197.445 11.448 196.317 11.448C195.525 11.448 194.853 11.7 194.301 12.204C193.773 12.708 193.509 13.344 193.509 14.112C193.509 14.856 193.785 15.48 194.337 15.984C194.913 16.464 195.693 16.896 196.677 17.28L198.081 17.82C199.545 18.372 200.553 19.044 201.105 19.836C201.681 20.604 201.969 21.528 201.969 22.608C201.969 23.88 201.537 24.996 200.673 25.956C199.809 26.916 198.561 27.396 196.929 27.396Z" fill="#002D30" fill-opacity="0.5"/>
</svg>
